<svg xmlns="http://www.w3.org/2000/svg" width="17" height="16.915" viewBox="0 0 17 16.915"><defs><style>.a{fill:white;}</style></defs><g transform="translate(0 -0.261)"><path class="a" d="M15.69,48.14a.423.423,0,0,0-.423.423v3.759A1.271,1.271,0,0,1,14,53.592H2.117a1.271,1.271,0,0,1-1.27-1.27V41.289a1.272,1.272,0,0,1,1.27-1.27H5.876a.423.423,0,1,0,0-.847H2.117A2.119,2.119,0,0,0,0,41.289V52.322a2.119,2.119,0,0,0,2.117,2.117H14a2.119,2.119,0,0,0,2.117-2.117V48.563a.423.423,0,0,0-.423-.423Zm0,0" transform="translate(0 -37.264)"/><path class="a" d="M119.556.819a1.905,1.905,0,0,0-2.694,0l-7.553,7.553a.423.423,0,0,0-.109.186l-.993,3.586a.423.423,0,0,0,.521.521l3.586-.993a.423.423,0,0,0,.186-.109l7.553-7.554a1.907,1.907,0,0,0,0-2.694ZM110.23,8.647l6.182-6.182,1.994,1.994-6.182,6.182Zm-.4.8,1.593,1.593-2.2.61Zm9.622-6.035L119,3.86l-1.994-1.994.449-.449a1.058,1.058,0,0,1,1.5,0l.5.5A1.06,1.06,0,0,1,119.454,3.411Zm0,0" transform="translate(-103.61)"/></g></svg>