<svg xmlns="http://www.w3.org/2000/svg" width="15.2" height="10.688" viewBox="0 0 15.2 10.688">
  <g id="email" transform="translate(0 -76)">
    <g id="Grupo_1176" data-name="Grupo 1176" transform="translate(0.779 81.975)">
      <g id="Grupo_1175" data-name="Grupo 1175">
        <path id="Caminho_1812" data-name="Caminho 1812" d="M35.3,277.251l-1.273,1.277a1.409,1.409,0,0,1-1.952,0L30.8,277.251l-4.572,4.587a1.323,1.323,0,0,0,.557.126H39.312a1.322,1.322,0,0,0,.557-.126Z" transform="translate(-26.226 -277.251)" fill="#f2f2f2"/>
      </g>
    </g>
    <g id="Grupo_1178" data-name="Grupo 1178" transform="translate(0.779 76)">
      <g id="Grupo_1177" data-name="Grupo 1177">
        <path id="Caminho_1813" data-name="Caminho 1813" d="M39.314,76H26.785a1.322,1.322,0,0,0-.557.126l4.886,4.9h0L32.7,82.623a.535.535,0,0,0,.691,0l1.588-1.594h0l4.886-4.9A1.322,1.322,0,0,0,39.314,76Z" transform="translate(-26.228 -76)" fill="#f2f2f2"/>
      </g>
    </g>
    <g id="Grupo_1180" data-name="Grupo 1180" transform="translate(0 76.748)">
      <g id="Grupo_1179" data-name="Grupo 1179">
        <path id="Caminho_1814" data-name="Caminho 1814" d="M.142,101.212A1.32,1.32,0,0,0,0,101.8v8.016a1.319,1.319,0,0,0,.142.587l4.58-4.6Z" transform="translate(0 -101.212)" fill="#f2f2f2"/>
      </g>
    </g>
    <g id="Grupo_1182" data-name="Grupo 1182" transform="translate(10.478 76.748)">
      <g id="Grupo_1181" data-name="Grupo 1181">
        <path id="Caminho_1815" data-name="Caminho 1815" d="M357.513,101.21l-4.58,4.6,4.58,4.6a1.319,1.319,0,0,0,.142-.588V101.8A1.319,1.319,0,0,0,357.513,101.21Z" transform="translate(-352.933 -101.21)" fill="#f2f2f2"/>
      </g>
    </g>
  </g>
</svg>
