<svg xmlns="http://www.w3.org/2000/svg" width="14" height="14.024" viewBox="0 0 14 14.024"><defs><style>.a{fill:#ccc;}.b{fill:#518ef8;}.c{fill:#28b446;}.d{fill:#f2f2f2;}.e{fill:#ffd837;}.f{fill:#fff;}.g{fill:#f14336;}.h{fill:#7e2d25;}</style></defs><g transform="translate(-0.447)"><path class="a" d="M232.371,191.8v5.962l-1.874-.347-.826-.991-3.48-3.869,2.955-2.1c1.48,1.954,1.527,1.477,1.527,1.477a1.028,1.028,0,0,1,1.669-.154Z" transform="translate(-219.56 -185.241)"/><path class="b" d="M48.345,223.1l6.144,7.908c-.036,0-.072.005-.108.005H44.336Z" transform="translate(-42.687 -216.994)"/><path class="c" d="M9.585,64.193.447,71.884V61.753a1.116,1.116,0,0,1,1.116-1.116H8.227c-.286.492.775.808.775,1.418A5.324,5.324,0,0,0,9.585,64.193Z" transform="translate(0 -58.976)"/><path class="d" d="M233.462,285.36v.385a1.116,1.116,0,0,1-1.008,1.111l-5.142-5.074,1.245-1.261,2.872,2.834.159.157Z" transform="translate(-220.652 -272.837)"/><path class="e" d="M9.269,184.475l-1.363,1.381-1.245,1.261L1.649,192.2H1.563A1.117,1.117,0,0,1,.447,191.08l7.786-7.89c.146.25,1.149,0,1.352.2l.374.481C10.143,184.065,9.112,184.268,9.269,184.475Z" transform="translate(0 -178.172)"/><path class="f" d="M43.744,101.455A1.779,1.779,0,1,1,45,98.418l-.412.412a1.2,1.2,0,1,0,.314,1.137h-1.16v-.583h1.779v.292A1.781,1.781,0,0,1,43.744,101.455Z" transform="translate(-40.381 -95.215)"/><path class="g" d="M268.515,1.661A3.335,3.335,0,1,1,273.752,5.7a7.621,7.621,0,0,0-.683.843,10.822,10.822,0,0,0-1.669,4.073A10.719,10.719,0,0,0,269.556,6.3a7.6,7.6,0,0,0-.509-.6h0a3.336,3.336,0,0,1-.533-4.037Z" transform="translate(-260.288)"/><path class="h" d="M326.787,56.947a1.775,1.775,0,1,1-1.775,1.775A1.775,1.775,0,0,1,326.787,56.947Z" transform="translate(-315.675 -55.387)"/></g></svg>