<svg id="g966" xmlns="http://www.w3.org/2000/svg" width="42.973" height="15.198" viewBox="0 0 42.973 15.198">
  <g id="g972" transform="translate(17.305 2.23)">
    <g id="path974" transform="translate(0 0)">
      <path id="Caminho_1771" data-name="Caminho 1771" d="M-720.957-381.192a.344.344,0,0,1-.343-.343v-8.717a3.252,3.252,0,0,1,3.248-3.248h2.571a3.25,3.25,0,0,1,3.24,3.248v1.86a3.252,3.252,0,0,1-3.248,3.248h-3.634a.344.344,0,0,1-.343-.343.344.344,0,0,1,.343-.343h3.634a2.564,2.564,0,0,0,2.563-2.563v-1.86a2.553,2.553,0,0,0-2.546-2.554h-2.571a2.564,2.564,0,0,0-2.563,2.563v8.717A.344.344,0,0,1-720.957-381.192Z" transform="translate(721.3 393.5)" fill="#939598"/>
    </g>
  </g>
  <g id="g976" transform="translate(26.405 2.227)">
    <g id="path978" transform="translate(0)">
      <path id="Caminho_1772" data-name="Caminho 1772" d="M-748.952-559.609a.344.344,0,0,1-.343-.343v-6.514a.85.85,0,0,0-.849-.849h-1.114a.344.344,0,0,1-.343-.343.344.344,0,0,1,.343-.343h1.114a1.533,1.533,0,0,1,1.534,1.534v6.514A.344.344,0,0,1-748.952-559.609Z" transform="translate(751.6 568)" fill="#939598"/>
    </g>
  </g>
  <g id="g980" transform="translate(28.207 0)">
    <g id="path982" transform="translate(0 0)">
      <path id="Caminho_1773" data-name="Caminho 1773" d="M-761.023-607.563l-.506-.506a.316.316,0,0,1,0-.454l.506-.506a.316.316,0,0,1,.454,0l.506.506a.316.316,0,0,1,0,.454l-.506.506a.331.331,0,0,1-.454,0" transform="translate(761.625 609.125)" fill="#32bcad"/>
    </g>
  </g>
  <g id="g984" transform="translate(30.853 2.217)">
    <g id="path986" transform="translate(0 0)">
      <path id="Caminho_1774" data-name="Caminho 1774" d="M-760.337-564.043a1.2,1.2,0,0,1-.849-.351l-2.588-2.588a1.8,1.8,0,0,0-1.277-.532h-1.106a.344.344,0,0,1-.343-.343.344.344,0,0,1,.343-.343h1.106a2.475,2.475,0,0,1,1.766.729l2.589,2.588a.523.523,0,0,0,.728,0l2.58-2.58a2.476,2.476,0,0,1,1.766-.729h.9a.344.344,0,0,1,.343.343.344.344,0,0,1-.343.343h-.9a1.8,1.8,0,0,0-1.277.531l-2.58,2.58A1.2,1.2,0,0,1-760.337-564.043Z" transform="translate(766.5 568.2)" fill="#939598"/>
    </g>
  </g>
  <g id="g988" transform="translate(30.853 6.4)">
    <g id="path990" transform="translate(0 0)">
      <path id="Caminho_1775" data-name="Caminho 1775" d="M-765.052-400.366h-1.106a.344.344,0,0,1-.343-.343.344.344,0,0,1,.343-.343h1.106a1.8,1.8,0,0,0,1.277-.531l2.589-2.588a1.205,1.205,0,0,1,1.706,0l2.58,2.58a1.8,1.8,0,0,0,1.277.531h.9a.344.344,0,0,1,.343.343.344.344,0,0,1-.343.343h-.9a2.476,2.476,0,0,1-1.766-.729l-2.58-2.58a.523.523,0,0,0-.729,0l-2.589,2.589A2.476,2.476,0,0,1-765.052-400.366Z" transform="translate(766.5 404.525)" fill="#939598"/>
    </g>
  </g>
  <g id="g992" transform="translate(2.863 9.024)">
    <g id="path994">
      <path id="Caminho_1776" data-name="Caminho 1776" d="M-782.515-346.232a2.067,2.067,0,0,1-1.474-.609l-2.126-2.126a.41.41,0,0,0-.557,0l-2.134,2.134a2.068,2.068,0,0,1-1.474.609h-.42l2.691,2.691a2.152,2.152,0,0,0,3.043,0l2.7-2.7Z" transform="translate(790.7 349.075)" fill="#32bcad"/>
    </g>
  </g>
  <g id="g996" transform="translate(2.877 1.038)">
    <g id="path998">
      <path id="Caminho_1777" data-name="Caminho 1777" d="M-673.689-551.729a2.068,2.068,0,0,1,1.474.609l2.134,2.134a.393.393,0,0,0,.557,0l2.126-2.126a2.068,2.068,0,0,1,1.474-.609h.257l-2.7-2.7a2.152,2.152,0,0,0-3.043,0l-2.691,2.691Z" transform="translate(674.1 555.05)" fill="#32bcad"/>
    </g>
  </g>
  <g id="g1000" transform="translate(0 4.958)">
    <g id="path1002" transform="translate(0 0)">
      <path id="Caminho_1778" data-name="Caminho 1778" d="M-847.912-474.063l-1.629-1.629a.273.273,0,0,1-.12.026h-.746a1.439,1.439,0,0,0-1.028.429l-2.126,2.126a1.027,1.027,0,0,1-.72.3,1.027,1.027,0,0,1-.72-.3l-2.134-2.134a1.453,1.453,0,0,0-1.028-.429h-.908a.237.237,0,0,1-.112-.026l-1.637,1.637a2.152,2.152,0,0,0,0,3.043l1.637,1.637a.237.237,0,0,1,.112-.026h.908a1.453,1.453,0,0,0,1.028-.429l2.134-2.134a1.041,1.041,0,0,1,1.44,0l2.126,2.126a1.453,1.453,0,0,0,1.028.429h.746a.3.3,0,0,1,.12.026l1.629-1.629a2.152,2.152,0,0,0,0-3.043" transform="translate(861.45 475.7)" fill="#32bcad"/>
    </g>
  </g>
  <g id="g1004" transform="translate(19.372 13.357)">
    <g id="path1006" transform="translate(0 0)">
      <path id="Caminho_1779" data-name="Caminho 1779" d="M-729.911-274.706a1.841,1.841,0,0,0-.4.06v.531a.933.933,0,0,0,.309.051c.266,0,.394-.086.394-.326a.267.267,0,0,0-.3-.317m-.488.986v-1.054h.077l.009.043a2.293,2.293,0,0,1,.411-.069.429.429,0,0,1,.274.077.4.4,0,0,1,.12.326.35.35,0,0,1-.171.334.628.628,0,0,1-.309.069.984.984,0,0,1-.317-.051v.309h-.094Z" transform="translate(730.4 274.8)" fill="#939598"/>
    </g>
  </g>
  <g id="g1008" transform="translate(20.457 13.361)">
    <g id="path1010">
      <path id="Caminho_1780" data-name="Caminho 1780" d="M-733.32-274.714c-.266,0-.386.086-.386.317s.12.326.386.326.386-.086.386-.317-.12-.326-.386-.326m.343.651a.6.6,0,0,1-.343.086.539.539,0,0,1-.343-.086.377.377,0,0,1-.137-.326.387.387,0,0,1,.137-.326.6.6,0,0,1,.343-.086.54.54,0,0,1,.343.086.365.365,0,0,1,.137.326.387.387,0,0,1-.137.326" transform="translate(733.8 274.8)" fill="#939598"/>
    </g>
  </g>
  <g id="g1012" transform="translate(21.543 13.385)">
    <g id="path1014" transform="translate(0 0)">
      <path id="Caminho_1781" data-name="Caminho 1781" d="M-744.206-263.129l-.3-.634h-.008l-.292.634h-.077l-.317-.771h.1l.266.643h.009l.283-.643h.086l.292.643h.008l.257-.643h.094l-.317.771Z" transform="translate(745.2 263.9)" fill="#939598"/>
    </g>
  </g>
  <g id="g1016" transform="translate(23.067 13.372)">
    <g id="path1018">
      <path id="Caminho_1782" data-name="Caminho 1782" d="M-741.563-274.623c-.248,0-.334.111-.343.266h.694c-.009-.171-.1-.266-.352-.266m0,.729a.439.439,0,0,1-.317-.086.408.408,0,0,1-.12-.317.391.391,0,0,1,.146-.326.508.508,0,0,1,.3-.077.5.5,0,0,1,.309.077.387.387,0,0,1,.129.351h-.788c0,.154.051.3.351.3a2.647,2.647,0,0,0,.394-.043v.077a3.052,3.052,0,0,1-.4.043" transform="translate(742 274.7)" fill="#939598"/>
    </g>
  </g>
  <g id="g1020" transform="translate(24.205 13.359)">
    <g id="path1022" transform="translate(0 0)">
      <path id="Caminho_1783" data-name="Caminho 1783" d="M-739.2-263.4v-.771h.077l.009.043a1.31,1.31,0,0,1,.386-.069h.009v.086h-.017a1.254,1.254,0,0,0-.36.06v.643h-.1Z" transform="translate(739.2 264.2)" fill="#939598"/>
    </g>
  </g>
  <g id="g1024" transform="translate(24.765 13.372)">
    <g id="path1026">
      <path id="Caminho_1784" data-name="Caminho 1784" d="M-747.163-274.623c-.249,0-.334.111-.343.266h.694c-.017-.171-.1-.266-.351-.266m0,.729a.439.439,0,0,1-.317-.086.408.408,0,0,1-.12-.317.391.391,0,0,1,.146-.326.508.508,0,0,1,.3-.077.5.5,0,0,1,.309.077.387.387,0,0,1,.129.351h-.789c0,.154.051.3.351.3a2.651,2.651,0,0,0,.394-.043v.077a3.218,3.218,0,0,1-.4.043" transform="translate(747.6 274.7)" fill="#939598"/>
    </g>
  </g>
  <g id="g1028" transform="translate(25.826 13.08)">
    <g id="path1030" transform="translate(0 0)">
      <path id="Caminho_1785" data-name="Caminho 1785" d="M-755.8-276.88a.932.932,0,0,0-.309-.051c-.266,0-.394.086-.394.326,0,.223.1.317.309.317a1.835,1.835,0,0,0,.4-.06v-.531Zm.017.66-.009-.043a2.289,2.289,0,0,1-.411.069.43.43,0,0,1-.274-.077.4.4,0,0,1-.12-.326.35.35,0,0,1,.171-.334.627.627,0,0,1,.309-.069,1.022,1.022,0,0,1,.317.051v-.351h.086v1.1h-.069Z" transform="translate(756.6 277.3)" fill="#939598"/>
    </g>
  </g>
  <g id="g1032" transform="translate(27.542 13.057)">
    <g id="path1034" transform="translate(0 0)">
      <path id="Caminho_1786" data-name="Caminho 1786" d="M-757.211-277.906a1.836,1.836,0,0,0-.4.06v.531a.933.933,0,0,0,.309.051c.266,0,.394-.086.394-.326a.266.266,0,0,0-.3-.317m.231.66a.627.627,0,0,1-.309.069.963.963,0,0,1-.343-.06l-.009.034h-.06v-1.1h.086v.369a2.291,2.291,0,0,1,.4-.06.43.43,0,0,1,.274.077.4.4,0,0,1,.12.326.349.349,0,0,1-.163.343" transform="translate(757.7 278.3)" fill="#939598"/>
    </g>
  </g>
  <g id="g1036" transform="translate(28.527 13.39)">
    <g id="path1038" transform="translate(0 0)">
      <path id="Caminho_1787" data-name="Caminho 1787" d="M-753.974-258.337v-.086a.566.566,0,0,0,.111.009.234.234,0,0,0,.24-.154l.026-.06-.4-.771h.1l.343.66h.009l.326-.66h.1l-.429.866a.31.31,0,0,1-.317.206c-.034,0-.077-.009-.111-.009" transform="translate(754 259.4)" fill="#939598"/>
    </g>
  </g>
  <g id="g1040" transform="translate(30.119 13.117)">
    <g id="path1042" transform="translate(0 0)">
      <path id="Caminho_1788" data-name="Caminho 1788" d="M-766.46-273h-.3v.266h.3c.206,0,.283-.026.283-.137s-.112-.129-.283-.129m-.06-.437h-.24v.274h.249c.206,0,.283-.026.283-.137s-.1-.137-.291-.137m.463.806a.9.9,0,0,1-.489.077H-767V-273.6h.446a.826.826,0,0,1,.446.069.217.217,0,0,1,.1.206.226.226,0,0,1-.163.231v.009c.137.034.223.1.223.249a.224.224,0,0,1-.111.206" transform="translate(767 273.6)" fill="#939598"/>
    </g>
  </g>
  <g id="g1044" transform="translate(31.384 13.363)">
    <g id="path1046" transform="translate(0 0)">
      <path id="Caminho_1789" data-name="Caminho 1789" d="M-773-268.529c-.086-.009-.18-.009-.274-.009-.154,0-.214.034-.214.1s.043.1.163.1a2.114,2.114,0,0,0,.326-.043Zm.043.326-.009-.043a1.721,1.721,0,0,1-.42.069.349.349,0,0,1-.231-.06.221.221,0,0,1-.086-.189.2.2,0,0,1,.128-.206.773.773,0,0,1,.292-.043c.077,0,.189.009.283.009v-.017c0-.12-.077-.163-.291-.163-.086,0-.189.009-.283.017v-.154c.112-.009.231-.017.334-.017a.661.661,0,0,1,.36.069.284.284,0,0,1,.1.266v.454h-.18Z" transform="translate(773.7 269)" fill="#939598"/>
    </g>
  </g>
  <g id="g1048" transform="translate(32.575 13.367)">
    <g id="path1050" transform="translate(0 0)">
      <path id="Caminho_1790" data-name="Caminho 1790" d="M-777.371-263.311v-.429c0-.137-.069-.189-.2-.189a1.438,1.438,0,0,0-.317.051v.566h-.214v-.771h.171l.008.051a1.8,1.8,0,0,1,.411-.069.42.42,0,0,1,.266.077.293.293,0,0,1,.086.24v.471Z" transform="translate(778.1 264.1)" fill="#939598"/>
    </g>
  </g>
  <g id="g1052" transform="translate(33.723 13.374)">
    <g id="path1054" transform="translate(0 0)">
      <path id="Caminho_1791" data-name="Caminho 1791" d="M-776.6-262.894a.455.455,0,0,1-.283-.077.4.4,0,0,1-.12-.326.376.376,0,0,1,.154-.326.623.623,0,0,1,.334-.077c.086,0,.171.009.274.017v.163a2.421,2.421,0,0,0-.248-.017c-.206,0-.3.06-.3.24,0,.163.069.24.24.24a1.551,1.551,0,0,0,.326-.043v.154a1.988,1.988,0,0,1-.377.051" transform="translate(777 263.7)" fill="#939598"/>
    </g>
  </g>
  <g id="g1056" transform="translate(34.618 13.371)">
    <g id="path1058" transform="translate(0 0)">
      <path id="Caminho_1792" data-name="Caminho 1792" d="M-781.186-273.346c-.206,0-.291.06-.291.24s.086.249.291.249.291-.06.291-.24-.086-.249-.291-.249m.368.574a.673.673,0,0,1-.368.077.674.674,0,0,1-.369-.077.371.371,0,0,1-.146-.326.351.351,0,0,1,.146-.326.673.673,0,0,1,.369-.077.673.673,0,0,1,.368.077.371.371,0,0,1,.146.326.371.371,0,0,1-.146.326" transform="translate(781.7 273.5)" fill="#939598"/>
    </g>
  </g>
  <g id="g1060" transform="translate(36.339 13.083)">
    <g id="path1062" transform="translate(0 0)">
      <path id="Caminho_1793" data-name="Caminho 1793" d="M-787.36-266a.559.559,0,0,1-.377-.111.529.529,0,0,1-.163-.437.523.523,0,0,1,.214-.446.781.781,0,0,1,.446-.1c.12,0,.231.009.36.017v.189c-.111-.009-.249-.017-.351-.017-.3,0-.42.111-.42.351s.12.351.334.351a2.284,2.284,0,0,0,.463-.06v.189a1.947,1.947,0,0,1-.506.077" transform="translate(787.9 267.1)" fill="#939598"/>
    </g>
  </g>
  <g id="g1064" transform="translate(37.54 13.368)">
    <g id="path1066" transform="translate(0)">
      <path id="Caminho_1794" data-name="Caminho 1794" d="M-790.42-273.763c-.18,0-.248.06-.257.18h.514c-.009-.129-.086-.18-.257-.18m-.034.669a.5.5,0,0,1-.326-.086.38.38,0,0,1-.12-.317.378.378,0,0,1,.146-.326.554.554,0,0,1,.334-.077.568.568,0,0,1,.334.077.419.419,0,0,1,.137.377h-.729c.009.12.068.2.283.2a2.16,2.16,0,0,0,.411-.043v.154a4.389,4.389,0,0,1-.472.043" transform="translate(790.9 273.9)" fill="#939598"/>
    </g>
  </g>
  <g id="g1068" transform="translate(38.712 13.367)">
    <g id="path1070" transform="translate(0 0)">
      <path id="Caminho_1795" data-name="Caminho 1795" d="M-797.872-263.311v-.429c0-.137-.069-.189-.2-.189a1.436,1.436,0,0,0-.317.051v.566h-.214v-.771h.172l.009.051a1.8,1.8,0,0,1,.411-.069.421.421,0,0,1,.266.077.294.294,0,0,1,.086.24v.471Z" transform="translate(798.6 264.1)" fill="#939598"/>
    </g>
  </g>
  <g id="g1072" transform="translate(39.798 13.151)">
    <g id="path1074">
      <path id="Caminho_1796" data-name="Caminho 1796" d="M-797.837-265.272a.268.268,0,0,1-.249-.111.416.416,0,0,1-.06-.231v-.291h-.154v-.163h.154l.026-.231h.189v.231h.3v.163h-.3v.249a.614.614,0,0,0,.017.146.139.139,0,0,0,.137.069.848.848,0,0,0,.154-.017v.154a.8.8,0,0,1-.214.034" transform="translate(798.3 266.3)" fill="#939598"/>
    </g>
  </g>
  <g id="g1076" transform="translate(40.681 13.367)">
    <g id="path1078" transform="translate(0 0)">
      <path id="Caminho_1797" data-name="Caminho 1797" d="M-794.3-263.311v-.771h.171l.009.051a1.257,1.257,0,0,1,.377-.069h.026v.18h-.077a.942.942,0,0,0-.3.043v.566Z" transform="translate(794.3 264.1)" fill="#939598"/>
    </g>
  </g>
  <g id="g1080" transform="translate(41.356 13.363)">
    <g id="path1082" transform="translate(0 0)">
      <path id="Caminho_1798" data-name="Caminho 1798" d="M-806.3-268.529c-.086-.009-.18-.009-.274-.009-.154,0-.214.034-.214.1s.043.1.163.1a2.119,2.119,0,0,0,.326-.043Zm.043.326-.008-.043a1.723,1.723,0,0,1-.42.069.349.349,0,0,1-.231-.06.221.221,0,0,1-.086-.189.2.2,0,0,1,.128-.206.773.773,0,0,1,.292-.043c.077,0,.188.009.283.009v-.017c0-.12-.077-.163-.291-.163-.086,0-.189.009-.283.017v-.154c.111-.009.231-.017.334-.017a.661.661,0,0,1,.36.069.284.284,0,0,1,.1.266v.454h-.18Z" transform="translate(807 269)" fill="#939598"/>
    </g>
  </g>
  <g id="path1084" transform="translate(42.55 13.067)">
    <path id="Caminho_1799" data-name="Caminho 1799" d="M455.2,343.8h.214v1.1H455.2Z" transform="translate(-455.2 -343.8)" fill="#939598"/>
  </g>
</svg>
