<svg xmlns="http://www.w3.org/2000/svg" width="21.266" height="21.266" viewBox="0 0 21.266 21.266"><defs><style>.a{fill:#797979;}</style></defs><path class="a" d="M21.927,19.37l-5.243-5.264a8.383,8.383,0,0,0,2.087-5.52A8.754,8.754,0,0,0,9.878,0,8.754,8.754,0,0,0,.984,8.586a8.754,8.754,0,0,0,8.894,8.586,9.017,9.017,0,0,0,5.1-1.554l5.282,5.3a1.19,1.19,0,0,0,1.64.031A1.094,1.094,0,0,0,21.927,19.37ZM9.878,2.24a6.47,6.47,0,0,1,6.573,6.346,6.47,6.47,0,0,1-6.573,6.346A6.47,6.47,0,0,1,3.3,8.586,6.47,6.47,0,0,1,9.878,2.24Z" transform="translate(-0.984)"/></svg>