<svg xmlns="http://www.w3.org/2000/svg" width="54.779" height="54.928" viewBox="0 0 54.779 54.928"><defs><style>.a{opacity:0.25;}.b{fill:#777;}.c{fill:#848484;}.d{fill:#d8d8d8;}.e{fill:#ededed;}</style></defs><g class="a" transform="translate(-557.1 -410.825)"><g transform="translate(557.1 410.825)"><path class="b" d="M596.728,417a48.539,48.539,0,0,0-19.228,4.021v9.236h15.407l-.717-1.951a.378.378,0,1,1,.717-.239l.836,2.229h2.627v-3.583a.4.4,0,1,1,.8,0V430.3h2.628l.836-2.229a.378.378,0,1,1,.717.239l-.717,1.951h15.407v-9.236A48.92,48.92,0,0,0,596.728,417Z" transform="translate(-569.379 -414.542)"/><path class="b" d="M596.728,522.6a48.539,48.539,0,0,1-19.228-4.021V509.34h15.407l-.717,1.951a.378.378,0,1,0,.717.239l.836-2.229h2.627v3.583a.4.4,0,0,0,.8,0V509.3h2.628l.836,2.229a.378.378,0,0,0,.717-.239l-.717-1.951h15.407v9.236A48.92,48.92,0,0,1,596.728,522.6Z" transform="translate(-569.379 -470.097)"/><g transform="translate(0 17.785)"><path class="c" d="M611.839,474.927H557.1V455.5h54.779v4.021a.4.4,0,1,1-.8,0V456.3H557.9v17.835h53.187v-9.992a.4.4,0,0,1,.8,0v10.789Z" transform="translate(-557.1 -455.5)"/></g><g transform="translate(5.733)"><path class="c" d="M614.376,426.938a.376.376,0,0,1-.4-.4V416.269a49.239,49.239,0,0,0-41.681,0v10.152a.4.4,0,1,1-.8,0V415.752l.239-.119a50.028,50.028,0,0,1,42.8,0l.239.119V426.54A.428.428,0,0,1,614.376,426.938Z" transform="translate(-571.5 -410.825)"/></g><g transform="translate(5.693 38.805)"><path class="c" d="M593.057,524.423a50.022,50.022,0,0,1-21.418-4.817l-.239-.119V508.7a.4.4,0,1,1,.8,0v10.271a49.239,49.239,0,0,0,41.681,0V508.778a.376.376,0,0,1,.4-.4h0a.376.376,0,0,1,.4.4v10.669l-.239.119A49.065,49.065,0,0,1,593.057,524.423Z" transform="translate(-571.4 -508.3)"/></g><g transform="translate(9.037 22.841)"><path class="b" d="M581.791,476.621h4.26v1.592H579.8V468.5h1.991Z" transform="translate(-579.8 -468.381)"/><path class="b" d="M608.241,473.415a5.54,5.54,0,0,1-.518,2.508,4.026,4.026,0,0,1-5.733,1.672,4.022,4.022,0,0,1-1.473-1.672,5.482,5.482,0,0,1-.518-2.468v-.478a5.54,5.54,0,0,1,.518-2.508,4.022,4.022,0,0,1,1.473-1.672,4.168,4.168,0,0,1,4.3,0,4.021,4.021,0,0,1,1.473,1.672,5.539,5.539,0,0,1,.518,2.508v.438Zm-2.03-.438a4.024,4.024,0,0,0-.557-2.309,1.912,1.912,0,0,0-3.105,0,4.025,4.025,0,0,0-.557,2.309v.478a4.208,4.208,0,0,0,.557,2.309,1.757,1.757,0,0,0,1.592.836,1.788,1.788,0,0,0,1.553-.8,4.115,4.115,0,0,0,.557-2.309v-.518Z" transform="translate(-591.958 -468.2)"/><path class="b" d="M635.122,476.8a3.472,3.472,0,0,1-1.513,1,6.477,6.477,0,0,1-2.19.358,4.515,4.515,0,0,1-2.229-.557A3.8,3.8,0,0,1,627.718,476a5.368,5.368,0,0,1-.518-2.468V472.9a6.128,6.128,0,0,1,.478-2.508,3.743,3.743,0,0,1,1.393-1.632,4.213,4.213,0,0,1,2.15-.557,4.006,4.006,0,0,1,2.707.836,3.6,3.6,0,0,1,1.154,2.389h-1.951a1.914,1.914,0,0,0-.6-1.234,2.026,2.026,0,0,0-1.274-.4,1.756,1.756,0,0,0-1.553.756,4.315,4.315,0,0,0-.557,2.269v.637a3.722,3.722,0,0,0,.6,2.309,2.028,2.028,0,0,0,1.712.8,2.176,2.176,0,0,0,1.592-.478V474.41h-1.831v-1.473h3.822V476.8Z" transform="translate(-608.33 -468.2)"/><path class="b" d="M662.141,473.415a5.54,5.54,0,0,1-.518,2.508,4.026,4.026,0,0,1-5.733,1.672,4.022,4.022,0,0,1-1.473-1.672,5.482,5.482,0,0,1-.518-2.468v-.478a5.54,5.54,0,0,1,.518-2.508,4.022,4.022,0,0,1,1.473-1.672,4.168,4.168,0,0,1,4.3,0,4.022,4.022,0,0,1,1.473,1.672,5.539,5.539,0,0,1,.518,2.508v.438Zm-2.03-.438a4.025,4.025,0,0,0-.557-2.309,1.912,1.912,0,0,0-3.105,0,4.025,4.025,0,0,0-.557,2.309v.478a4.207,4.207,0,0,0,.557,2.309,1.757,1.757,0,0,0,1.592.836,1.788,1.788,0,0,0,1.553-.8,4.115,4.115,0,0,0,.557-2.309v-.518Z" transform="translate(-624.401 -468.2)"/></g><g transform="translate(14.889 6.081)"><path class="d" d="M595.973,432.192l-.8.239.318,1.155-.239.08-.756-2.787.916-.239a1.494,1.494,0,0,1,.4-.04,1.163,1.163,0,0,1,.358.08.715.715,0,0,1,.279.2.8.8,0,0,1,.159.318.678.678,0,0,1,.04.279c0,.08-.04.159-.04.239a.689.689,0,0,1-.318.358l1.035,1v.04l-.239.08Zm-.876,0,.717-.2a1.942,1.942,0,0,0,.279-.119.4.4,0,0,0,.159-.2.566.566,0,0,0,.08-.239.505.505,0,0,0-.04-.239l-.119-.239a.4.4,0,0,0-.2-.159c-.08-.04-.159-.04-.239-.08a.989.989,0,0,0-.318.04l-.677.2Z" transform="translate(-594.5 -428.809)"/><path class="d" d="M602.771,429.973l-1.314.318.279,1.155,1.513-.358.04.2-1.752.4L600.9,428.9l1.752-.4.04.2-1.513.358.239,1.075,1.314-.318Z" transform="translate(-598.352 -427.545)"/><path class="d" d="M608.49,427.439l-.955.159.478,2.628-.239.04-.478-2.628-.956.159-.04-.2,2.19-.4Z" transform="translate(-601.602 -426.762)"/><path class="d" d="M614.474,428.372l-.836.08.159,1.194-.239.04-.358-2.866.916-.119h.4a.76.76,0,0,1,.318.119l.239.239a1.852,1.852,0,0,1,.119.358v.279a.566.566,0,0,1-.08.239c-.04.08-.119.119-.159.2-.08.04-.159.119-.239.159l.876,1.115v.04l-.239.04Zm-.876-.119.756-.08a.575.575,0,0,0,.279-.08.4.4,0,0,0,.2-.159c.04-.08.08-.119.119-.2a.254.254,0,0,0,0-.239.737.737,0,0,0-.08-.279.7.7,0,0,0-.159-.2.566.566,0,0,0-.239-.08.85.85,0,0,0-.318,0l-.677.08Z" transform="translate(-605.755 -426.461)"/><path class="d" d="M622.129,427.692a2.449,2.449,0,0,1-.04.557,1.472,1.472,0,0,1-.2.438.867.867,0,0,1-.358.279.8.8,0,0,1-.438.119,1.01,1.01,0,0,1-.478-.08.81.81,0,0,1-.358-.239.965.965,0,0,1-.239-.4,2.294,2.294,0,0,1-.119-.557v-.318a2.449,2.449,0,0,1,.04-.557,1.471,1.471,0,0,1,.2-.438.867.867,0,0,1,.358-.279.8.8,0,0,1,.438-.119,1.01,1.01,0,0,1,.478.08.809.809,0,0,1,.358.239.965.965,0,0,1,.239.4c.04.159.08.358.119.557Zm-.239-.318a1.432,1.432,0,0,0-.08-.438,1.612,1.612,0,0,0-.2-.358.461.461,0,0,0-.279-.2.846.846,0,0,0-.717,0,.536.536,0,0,0-.279.239.751.751,0,0,0-.159.358,1.785,1.785,0,0,0-.04.478v.318a2,2,0,0,0,.08.478,1.611,1.611,0,0,0,.2.358.714.714,0,0,0,.279.2,1.162,1.162,0,0,0,.358.08.8.8,0,0,0,.358-.08.536.536,0,0,0,.279-.239.75.75,0,0,0,.159-.358,1.639,1.639,0,0,0,.04-.478Z" transform="translate(-609.788 -426.1)"/><path class="d" d="M630.811,428.529a.3.3,0,0,0-.04-.2c-.04-.04-.08-.119-.119-.159a.613.613,0,0,0-.239-.159,1.563,1.563,0,0,0-.358-.159,4.109,4.109,0,0,1-.4-.159.714.714,0,0,1-.279-.2.832.832,0,0,1-.159-.239.775.775,0,0,1-.04-.318.575.575,0,0,1,.08-.279.48.48,0,0,1,.2-.2.76.76,0,0,1,.318-.119,1.227,1.227,0,0,1,.4-.04,1.178,1.178,0,0,1,.4.08.714.714,0,0,1,.279.2,1,1,0,0,1,.159.279,1.1,1.1,0,0,1,.04.358h-.239a.678.678,0,0,0-.04-.279.869.869,0,0,0-.119-.2.366.366,0,0,0-.239-.159.937.937,0,0,0-.318-.08h-.318c-.08.04-.159.04-.239.08a.311.311,0,0,0-.159.159c-.04.08-.04.119-.08.2a.359.359,0,0,0,.04.2.55.55,0,0,0,.119.159.612.612,0,0,0,.239.159,2.511,2.511,0,0,1,.358.159,4.117,4.117,0,0,1,.4.159.714.714,0,0,1,.279.2.834.834,0,0,1,.159.239.776.776,0,0,1,.04.318.749.749,0,0,1-.08.318.676.676,0,0,1-.239.239,2.74,2.74,0,0,1-.318.119,1.227,1.227,0,0,1-.4.04.5.5,0,0,1-.239-.04c-.08-.04-.159-.04-.239-.08a.869.869,0,0,1-.2-.119c-.08-.04-.119-.119-.159-.159a1.322,1.322,0,0,1-.119-.239.591.591,0,0,1-.04-.279h.239a.776.776,0,0,0,.04.318.866.866,0,0,0,.159.2c.08.04.159.119.239.119a.678.678,0,0,0,.279.04h.318a.565.565,0,0,0,.239-.08.311.311,0,0,0,.159-.159A.341.341,0,0,0,630.811,428.529Z" transform="translate(-615.205 -426.22)"/><path class="d" d="M637.79,427.278l-1-.119-.358,2.627-.239-.04.358-2.628L635.6,427l.04-.2,2.19.318Z" transform="translate(-619.238 -426.521)"/><path class="d" d="M642.736,429.352,643.891,428l.279.04-1.354,1.553-.2,1.075-.239-.04.2-1.075L641.9,427.6l.279.04Z" transform="translate(-623.03 -427.003)"/><path class="d" d="M647.479,431.727l1.393.358-.04.2-1.632-.4.677-2.787.239.04Z" transform="translate(-626.22 -427.906)"/><path class="d" d="M654.211,432.331l-1.274-.358-.358,1.115,1.473.438-.04.2-1.712-.478.8-2.747,1.712.478-.04.2-1.473-.438-.318,1.035,1.274.358Z" transform="translate(-629.29 -428.748)"/></g><g transform="translate(17.437 44.14)"><path class="e" d="M602.652,524.628c0-.08.04-.159,0-.2,0-.08-.04-.119-.08-.2s-.119-.119-.2-.2a2.214,2.214,0,0,0-.318-.2l-.358-.239a.676.676,0,0,1-.239-.239.362.362,0,0,1-.119-.279.857.857,0,0,1,0-.318.641.641,0,0,1,.159-.279c.08-.08.159-.119.239-.2a.429.429,0,0,1,.318-.08,1.494,1.494,0,0,1,.4.04,1.194,1.194,0,0,1,.4.159.677.677,0,0,1,.239.239.452.452,0,0,1,.119.318v.358l-.239-.04a.337.337,0,0,0,0-.279.566.566,0,0,0-.08-.239c-.04-.08-.119-.119-.2-.2s-.2-.08-.279-.119a.877.877,0,0,0-.318-.04c-.08,0-.159.04-.239.04a.549.549,0,0,0-.159.119.3.3,0,0,0-.08.2v.2c0,.08.04.119.08.2s.119.119.2.2a2.229,2.229,0,0,0,.318.2l.358.239a.676.676,0,0,1,.239.239.6.6,0,0,1,.119.279v.318a.641.641,0,0,1-.159.279c-.08.08-.159.119-.239.2a.951.951,0,0,1-.358.08,1.494,1.494,0,0,1-.4-.04c-.08-.04-.159-.04-.239-.08l-.239-.119c-.08-.04-.119-.119-.2-.159-.04-.08-.119-.119-.119-.2-.04-.08-.04-.159-.08-.239a.678.678,0,0,1,.04-.279l.239.04a.436.436,0,0,0,0,.318.733.733,0,0,0,.4.4c.08.04.2.08.279.119a.877.877,0,0,0,.318.04c.08,0,.2,0,.239-.04.08-.04.119-.08.2-.119S602.612,524.708,602.652,524.628Z" transform="translate(-600.9 -522.001)"/><path class="e" d="M607.239,526.266l-.239-.04.6-2.827.239.04Z" transform="translate(-604.572 -522.723)"/><path class="e" d="M611.91,527.185l-.239-.04-1.234-2.707-.4,2.428-.239-.04.438-2.827.239.04,1.234,2.707.4-2.428.239.04Z" transform="translate(-606.257 -523.084)"/><path class="e" d="M619.31,527.305c-.04.159-.08.279-.119.4a1.735,1.735,0,0,1-.239.279.8.8,0,0,1-.318.159,1.493,1.493,0,0,1-.438.04.8.8,0,0,1-.438-.119,1.075,1.075,0,0,1-.318-.279,1.472,1.472,0,0,1-.2-.438,2.271,2.271,0,0,1-.04-.518l.04-.358a1.1,1.1,0,0,1,.119-.518,3.5,3.5,0,0,1,.239-.4.911.911,0,0,1,.836-.279,1.177,1.177,0,0,1,.4.08,1.4,1.4,0,0,1,.318.2.866.866,0,0,1,.2.318,1.178,1.178,0,0,1,.08.4h-.239c0-.119-.04-.239-.04-.318s-.08-.159-.119-.239a.508.508,0,0,0-.239-.159.938.938,0,0,0-.318-.08,1.1,1.1,0,0,0-.358.04.714.714,0,0,0-.279.2.867.867,0,0,0-.2.318,1.431,1.431,0,0,0-.08.438l-.04.358a1.491,1.491,0,0,0,.04.438l.119.358a.676.676,0,0,0,.239.239.963.963,0,0,0,.955,0,.665.665,0,0,0,.279-.518Z" transform="translate(-610.711 -523.842)"/><path class="e" d="M625.792,526.913h-1.354v1.155h1.553v.2H624.2V525.4h1.791v.2h-1.553v1.075h1.354Z" transform="translate(-614.924 -523.927)"/><path class="e" d="M633.89,527.747l-1.791.2-.04-.2.8-1.155c.08-.119.159-.2.2-.279l.119-.239a.432.432,0,0,0,.04-.2v-.2a.566.566,0,0,0-.08-.239.55.55,0,0,0-.119-.159.873.873,0,0,0-.2-.119.337.337,0,0,0-.279,0,.739.739,0,0,0-.279.08.7.7,0,0,0-.2.159l-.119.239a.337.337,0,0,0,0,.279l-.239.04a1.1,1.1,0,0,1,.04-.358.643.643,0,0,1,.159-.279,1.057,1.057,0,0,1,.239-.2A3.753,3.753,0,0,1,632.5,525h.358a.594.594,0,0,1,.279.119.408.408,0,0,1,.2.239.938.938,0,0,1,.08.318v.279c-.04.08-.04.2-.08.279a1,1,0,0,1-.159.279,1.21,1.21,0,0,1-.2.279l-.677,1,1.513-.159Z" transform="translate(-619.438 -523.686)"/><path class="e" d="M639.511,525.568a2.821,2.821,0,0,1,.04.557.672.672,0,0,1-.119.4.535.535,0,0,1-.239.279.487.487,0,0,1-.358.119.678.678,0,0,1-.4,0,.8.8,0,0,1-.318-.159,1.389,1.389,0,0,1-.239-.358,1.97,1.97,0,0,1-.159-.518l-.08-.478a2.822,2.822,0,0,1-.04-.557.672.672,0,0,1,.119-.4.535.535,0,0,1,.239-.279.556.556,0,0,1,.358-.119.679.679,0,0,1,.4,0,.8.8,0,0,1,.318.159,1.389,1.389,0,0,1,.239.358,1.972,1.972,0,0,1,.159.518Zm-.358-.438a1.5,1.5,0,0,0-.279-.717.5.5,0,0,0-.518-.159.616.616,0,0,0-.438.318,1.489,1.489,0,0,0-.04.756l.08.518c.04.159.08.318.119.438a1.724,1.724,0,0,0,.159.279.833.833,0,0,0,.239.159.34.34,0,0,0,.279,0,.361.361,0,0,0,.279-.119.366.366,0,0,0,.159-.239c.04-.119.04-.2.08-.318a1.786,1.786,0,0,0-.04-.438Z" transform="translate(-622.99 -523.099)"/><path class="e" d="M645.011,524.428a3.124,3.124,0,0,1,.08.557,1.177,1.177,0,0,1-.08.4.715.715,0,0,1-.2.279.751.751,0,0,1-.358.159.679.679,0,0,1-.4,0,.8.8,0,0,1-.318-.159.958.958,0,0,1-.239-.318c-.04-.119-.119-.318-.2-.518l-.119-.478a3.124,3.124,0,0,1-.08-.557,1.177,1.177,0,0,1,.08-.4.535.535,0,0,1,.239-.279.751.751,0,0,1,.358-.159.675.675,0,0,1,.4,0,.8.8,0,0,1,.318.159.958.958,0,0,1,.239.318c.08.159.119.318.2.518Zm-.319-.438a1.526,1.526,0,0,0-.318-.677.434.434,0,0,0-.518-.119.467.467,0,0,0-.4.358,1.211,1.211,0,0,0,0,.756l.119.518c.04.159.08.279.119.4a.713.713,0,0,0,.2.279.833.833,0,0,0,.239.159.34.34,0,0,0,.279,0,1.938,1.938,0,0,0,.279-.119c.08-.04.12-.159.159-.239a.777.777,0,0,0,.04-.318c0-.119-.04-.279-.04-.438Z" transform="translate(-626.3 -522.437)"/><path class="e" d="M650.232,524.447l-.239.08-.677-2.508-.677.478-.04-.2.836-.6h.04Z" transform="translate(-629.611 -521.7)"/></g></g></g></svg>