<svg xmlns="http://www.w3.org/2000/svg" width="26.467" height="23.262" viewBox="0 0 26.467 23.262"><defs><style>.a{fill:#000000;}</style></defs><g transform="translate(0 0)"><path class="a" d="M8.527,15.408H22.59a.775.775,0,0,0,.746-.559l3.1-10.785a.767.767,0,0,0-.126-.675.777.777,0,0,0-.619-.307H6.739L6.185.6A.774.774,0,0,0,5.428,0H.775a.77.77,0,1,0,0,1.541h4.03l2.8,12.517a2.309,2.309,0,0,0,.924,4.432H22.59a.77.77,0,1,0,0-1.541H8.529a.77.77,0,1,1,0-1.541ZM24.663,4.622,22,13.867H9.151L7.083,4.622Zm0,0" transform="translate(0)"/><path class="a" d="M150,362.386A2.386,2.386,0,1,0,152.386,360,2.389,2.389,0,0,0,150,362.386Zm2.386-.8a.8.8,0,1,1-.8.8A.8.8,0,0,1,152.386,361.591Zm0,0" transform="translate(-142.289 -341.511)"/><path class="a" d="M362,362.386A2.386,2.386,0,1,0,364.386,360,2.389,2.389,0,0,0,362,362.386Zm2.386-.8a.8.8,0,1,1-.8.8A.8.8,0,0,1,364.386,361.591Zm0,0" transform="translate(-343.488 -341.511)"/></g></svg>